<svg width="19" height="19" viewBox="0 0 19 19" fill="none" xmlns="http://www.w3.org/2000/svg">
<g clip-path="url(#clip0)">
<path d="M16.245 2.73046C14.44 0.985625 12.065 0 9.53563 0C2.27604 0 -2.28238 7.86521 1.34267 14.1217L0 19L5.01521 17.6922C7.20021 18.8725 8.99017 18.768 9.54037 18.8377C17.9582 18.8377 22.1485 8.65371 16.2331 2.76133L16.245 2.73046Z" fill="#ECEFF1"/>
<path d="M9.55301 17.2196L9.54826 17.2188H9.53559C7.01651 17.2188 5.40705 16.0258 5.24872 15.9569L2.27997 16.7288L3.07559 13.8431L2.88638 13.5463C2.10263 12.2986 1.68622 10.8617 1.68622 9.38209C1.68622 2.42096 10.1927 -1.06 15.1153 3.86021C20.026 8.72896 16.5783 17.2196 9.55301 17.2196Z" fill="#03002B"/>
<path d="M13.8597 11.3265L13.8526 11.3858C13.6143 11.2671 12.4537 10.6995 12.2376 10.6211C11.7523 10.4414 11.8892 10.5926 10.9575 11.6598C10.8189 11.8141 10.6812 11.826 10.446 11.7191C10.2085 11.6004 9.44616 11.351 8.54366 10.5435C7.84066 9.91413 7.36883 9.14226 7.22949 8.90476C6.99754 8.50418 7.48283 8.44718 7.92458 7.61118C8.00374 7.44493 7.96337 7.3143 7.90479 7.19634C7.84541 7.07759 7.37279 5.91384 7.17487 5.44993C6.98487 4.98759 6.78933 5.04618 6.64287 5.04618C6.18687 5.00659 5.85358 5.01293 5.55987 5.31851C4.28212 6.72293 4.60433 8.17168 5.69762 9.71226C7.8462 12.5243 8.99095 13.042 11.0841 13.7608C11.6494 13.9406 12.1647 13.9152 12.5725 13.8566C13.0269 13.7846 13.9713 13.2858 14.1685 12.7277C14.3703 12.1696 14.3703 11.7065 14.311 11.5996C14.2524 11.4927 14.0972 11.4333 13.8597 11.3265Z" fill="#FAFAFA"/>
</g>
<defs>
<clipPath id="clip0">
<rect width="19" height="19" fill="white"/>
</clipPath>
</defs>
</svg>
